M48
;DRILL file {KiCad 4.0.7-e0-6372~58~ubuntu16.10.1} date Wed Dec 20 17:09:46 2017
;FORMAT={-:-/ absolute / inch / decimal}
FMAT,2
INCH,TZ
T1C0.016
T2C0.039
T3C0.040
T4C0.043
T5C0.047
T6C0.035
T7C0.079
T8C0.138
%
G90
G05
M72
T1
X4.42Y-3.8
X4.535Y-3.8
X4.6Y-1.65
X4.675Y-1.7
X4.7Y-1.55
X4.725Y-1.75
X4.725Y-2.17
X4.73Y-4.155
X4.74Y-2.635
X4.75Y-3.5
X4.75Y-3.625
X4.8Y-1.75
X4.845Y-3.425
X4.87Y-3.75
X4.885Y-3.625
X4.925Y-3.615
X4.975Y-3.425
X5.Y-4.05
X5.025Y-3.975
X5.05Y-3.95
X5.05Y-4.
X5.05Y-4.325
X5.055Y-4.17
X5.085Y-4.005
X5.09Y-3.84
X5.09Y-4.05
X5.15Y-4.325
X5.19Y-3.93
X5.225Y-1.75
X5.225Y-1.875
X5.225Y-2.15
X5.225Y-2.275
X5.225Y-2.55
X5.225Y-2.675
X5.225Y-2.975
X5.225Y-3.125
X5.225Y-3.8
X5.225Y-4.
X5.25Y-4.3
X5.27Y-3.59
X5.27Y-3.65
X5.27Y-3.705
X5.28Y-4.05
X5.28Y-4.275
X5.33Y-3.05
X5.33Y-3.42
X5.35Y-4.245
X5.405Y-4.15
X5.43Y-4.24
X5.51Y-4.14
X5.525Y-3.59
X5.525Y-3.65
X5.525Y-3.705
X5.92Y-3.32
X6.335Y-3.325
X6.975Y-1.625
X6.975Y-1.75
X6.975Y-2.025
X6.975Y-2.15
X6.975Y-2.425
X6.975Y-2.55
X6.975Y-2.825
X6.975Y-2.975
X7.195Y-3.34
T2
X4.85Y-1.45
X4.85Y-1.55
X4.85Y-1.65
X5.7Y-3.7
X5.7984Y-3.7
X5.8969Y-3.7
X6.3Y-3.7
X6.3984Y-3.7
X6.4969Y-3.7
X6.9Y-3.7
X6.9984Y-3.7
X7.0969Y-3.7
T3
X6.075Y-4.4
X6.575Y-4.4
T4
X4.5441Y-1.8978
X4.5441Y-2.075
X4.5441Y-2.3478
X4.5441Y-2.525
X4.5441Y-2.7978
X4.5441Y-2.975
X4.8Y-1.8978
X4.8Y-2.075
X4.8Y-2.3478
X4.8Y-2.525
X4.8Y-2.7978
X4.8Y-2.975
T5
X5.3805Y-4.375
X5.4789Y-4.375
X5.5774Y-4.375
X5.6758Y-4.375
X5.775Y-4.375
T6
X4.362Y-3.9659
X4.362Y-4.0841
X4.4579Y-3.4384
X4.4579Y-3.6116
T7
X5.6252Y-3.9756
X5.9717Y-3.9756
X6.2252Y-3.9756
X6.5717Y-3.9756
X6.8252Y-3.9756
X7.1717Y-3.9756
T8
X5.65Y-3.466
X6.575Y-3.466
T0
M30
