G04 #@! TF.FileFunction,Soldermask,Top*
%FSLAX46Y46*%
G04 Gerber Fmt 4.6, Leading zero omitted, Abs format (unit mm)*
G04 Created by KiCad (PCBNEW 4.0.7-e0-6372~58~ubuntu16.10.1) date Wed Dec 20 17:09:54 2017*
%MOMM*%
%LPD*%
G01*
G04 APERTURE LIST*
%ADD10C,0.100000*%
%ADD11R,0.900000X1.300000*%
%ADD12R,1.400000X5.200000*%
%ADD13R,2.400000X2.400000*%
%ADD14C,2.400000*%
%ADD15C,3.900000*%
%ADD16R,1.200000X1.150000*%
%ADD17R,1.150000X1.200000*%
%ADD18R,2.700000X0.900000*%
%ADD19R,2.900000X2.400000*%
%ADD20C,1.300000*%
%ADD21O,3.410000X1.910000*%
%ADD22R,2.000000X1.400000*%
%ADD23C,2.200000*%
%ADD24C,4.400000*%
%ADD25R,1.300000X1.200000*%
%ADD26R,1.300000X0.900000*%
%ADD27R,1.900000X1.100000*%
%ADD28R,1.200000X1.400000*%
%ADD29R,1.460000X1.050000*%
%ADD30R,0.850000X1.850000*%
G04 APERTURE END LIST*
D10*
D11*
X172835000Y-83820000D03*
X171335000Y-83820000D03*
D12*
X121960000Y-109220000D03*
X124460000Y-109220000D03*
X126960000Y-109220000D03*
D13*
X167005000Y-111760000D03*
D14*
X154305000Y-111760000D03*
D15*
X143510000Y-88036400D03*
X167005000Y-88036400D03*
D16*
X127139000Y-96520000D03*
X128639000Y-96520000D03*
X126885000Y-92075000D03*
X128385000Y-92075000D03*
D17*
X130810000Y-108700000D03*
X130810000Y-107200000D03*
D16*
X124575000Y-55245000D03*
X123075000Y-55245000D03*
X124575000Y-66675000D03*
X123075000Y-66675000D03*
X124575000Y-78105000D03*
X123075000Y-78105000D03*
D17*
X119380000Y-89650000D03*
X119380000Y-88150000D03*
X125730000Y-89650000D03*
X125730000Y-88150000D03*
D16*
X123305000Y-101600000D03*
X121805000Y-101600000D03*
X127139000Y-95250000D03*
X128639000Y-95250000D03*
D17*
X129540000Y-108700000D03*
X129540000Y-107200000D03*
X137160000Y-40120000D03*
X137160000Y-38620000D03*
X148590000Y-40120000D03*
X148590000Y-38620000D03*
X160020000Y-40120000D03*
X160020000Y-38620000D03*
X171450000Y-40120000D03*
X171450000Y-38620000D03*
X182880000Y-40120000D03*
X182880000Y-38620000D03*
X137160000Y-50280000D03*
X137160000Y-48780000D03*
X148590000Y-50280000D03*
X148590000Y-48780000D03*
X160020000Y-50280000D03*
X160020000Y-48780000D03*
X171450000Y-50280000D03*
X171450000Y-48780000D03*
X182880000Y-50280000D03*
X182880000Y-48780000D03*
X137160000Y-60440000D03*
X137160000Y-58940000D03*
X148590000Y-60440000D03*
X148590000Y-58940000D03*
X160020000Y-60440000D03*
X160020000Y-58940000D03*
X171450000Y-60440000D03*
X171450000Y-58940000D03*
X182880000Y-60440000D03*
X182880000Y-58940000D03*
X137160000Y-70600000D03*
X137160000Y-69100000D03*
X148590000Y-70600000D03*
X148590000Y-69100000D03*
X160020000Y-70600000D03*
X160020000Y-69100000D03*
X171450000Y-70600000D03*
X171450000Y-69100000D03*
X182880000Y-70600000D03*
X182880000Y-69100000D03*
X137160000Y-82030000D03*
X137160000Y-80530000D03*
X148590000Y-82030000D03*
X148590000Y-80530000D03*
X160020000Y-82030000D03*
X160020000Y-80530000D03*
X171450000Y-82030000D03*
X171450000Y-80530000D03*
X182880000Y-82030000D03*
X182880000Y-80530000D03*
D13*
X146685000Y-111125000D03*
D14*
X144165000Y-111125000D03*
X141665000Y-111125000D03*
X139165000Y-111125000D03*
X136665000Y-111125000D03*
D18*
X115830000Y-87935000D03*
X115830000Y-88735000D03*
X115830000Y-89535000D03*
X115830000Y-90335000D03*
X115830000Y-91135000D03*
D19*
X115730000Y-85085000D03*
X110230000Y-85085000D03*
X115730000Y-93985000D03*
X110230000Y-93985000D03*
D20*
X113230000Y-87335000D03*
X113230000Y-91735000D03*
D21*
X123190000Y-36830000D03*
X123190000Y-39370000D03*
X123190000Y-41910000D03*
D22*
X134580000Y-40970000D03*
X134580000Y-37770000D03*
X129580000Y-40970000D03*
X129580000Y-37770000D03*
X146010000Y-40970000D03*
X146010000Y-37770000D03*
X141010000Y-40970000D03*
X141010000Y-37770000D03*
X157440000Y-40970000D03*
X157440000Y-37770000D03*
X152440000Y-40970000D03*
X152440000Y-37770000D03*
X168870000Y-40970000D03*
X168870000Y-37770000D03*
X163870000Y-40970000D03*
X163870000Y-37770000D03*
X180300000Y-40970000D03*
X180300000Y-37770000D03*
X175300000Y-40970000D03*
X175300000Y-37770000D03*
X134580000Y-51130000D03*
X134580000Y-47930000D03*
X129580000Y-51130000D03*
X129580000Y-47930000D03*
X146010000Y-51130000D03*
X146010000Y-47930000D03*
X141010000Y-51130000D03*
X141010000Y-47930000D03*
X157440000Y-51130000D03*
X157440000Y-47930000D03*
X152440000Y-51130000D03*
X152440000Y-47930000D03*
X168870000Y-51130000D03*
X168870000Y-47930000D03*
X163870000Y-51130000D03*
X163870000Y-47930000D03*
X180300000Y-51130000D03*
X180300000Y-47930000D03*
X175300000Y-51130000D03*
X175300000Y-47930000D03*
X134580000Y-61290000D03*
X134580000Y-58090000D03*
X129580000Y-61290000D03*
X129580000Y-58090000D03*
X146010000Y-61290000D03*
X146010000Y-58090000D03*
X141010000Y-61290000D03*
X141010000Y-58090000D03*
X157440000Y-61290000D03*
X157440000Y-58090000D03*
X152440000Y-61290000D03*
X152440000Y-58090000D03*
X168870000Y-61290000D03*
X168870000Y-58090000D03*
X163870000Y-61290000D03*
X163870000Y-58090000D03*
X180300000Y-61290000D03*
X180300000Y-58090000D03*
X175300000Y-61290000D03*
X175300000Y-58090000D03*
X134580000Y-71450000D03*
X134580000Y-68250000D03*
X129580000Y-71450000D03*
X129580000Y-68250000D03*
X146010000Y-71450000D03*
X146010000Y-68250000D03*
X141010000Y-71450000D03*
X141010000Y-68250000D03*
X157440000Y-71450000D03*
X157440000Y-68250000D03*
X152440000Y-71450000D03*
X152440000Y-68250000D03*
X168870000Y-71450000D03*
X168870000Y-68250000D03*
X163870000Y-71450000D03*
X163870000Y-68250000D03*
X180300000Y-71450000D03*
X180300000Y-68250000D03*
X175300000Y-71450000D03*
X175300000Y-68250000D03*
X134580000Y-82880000D03*
X134580000Y-79680000D03*
X129580000Y-82880000D03*
X129580000Y-79680000D03*
X146010000Y-82880000D03*
X146010000Y-79680000D03*
X141010000Y-82880000D03*
X141010000Y-79680000D03*
X157440000Y-82880000D03*
X157440000Y-79680000D03*
X152440000Y-82880000D03*
X152440000Y-79680000D03*
X168870000Y-82880000D03*
X168870000Y-79680000D03*
X163870000Y-82880000D03*
X163870000Y-79680000D03*
X180300000Y-82880000D03*
X180300000Y-79680000D03*
X175300000Y-82880000D03*
X175300000Y-79680000D03*
D23*
X149780000Y-93980000D03*
X147280000Y-93980000D03*
X144780000Y-93980000D03*
D24*
X151680000Y-100980000D03*
X142880000Y-100980000D03*
D23*
X165020000Y-93980000D03*
X162520000Y-93980000D03*
X160020000Y-93980000D03*
D24*
X166920000Y-100980000D03*
X158120000Y-100980000D03*
D23*
X180260000Y-93980000D03*
X177760000Y-93980000D03*
X175260000Y-93980000D03*
D24*
X182160000Y-100980000D03*
X173360000Y-100980000D03*
D25*
X118475000Y-41590000D03*
X118475000Y-39690000D03*
X116475000Y-40640000D03*
D11*
X127520000Y-86995000D03*
X129020000Y-86995000D03*
X135370000Y-98425000D03*
X133870000Y-98425000D03*
D26*
X133985000Y-100215000D03*
X133985000Y-101715000D03*
X121920000Y-104890000D03*
X121920000Y-103390000D03*
X118745000Y-36080000D03*
X118745000Y-37580000D03*
D20*
X110795000Y-100735000D03*
X110795000Y-103735000D03*
D27*
X112555000Y-99985000D03*
X112555000Y-102985000D03*
X112555000Y-104485000D03*
D28*
X109695000Y-98585000D03*
X109695000Y-105885000D03*
X111905000Y-105885000D03*
X111905000Y-98585000D03*
D14*
X121920000Y-48205000D03*
X121920000Y-52705000D03*
X115420000Y-48205000D03*
X115420000Y-52705000D03*
X121920000Y-59635000D03*
X121920000Y-64135000D03*
X115420000Y-59635000D03*
X115420000Y-64135000D03*
X121920000Y-71065000D03*
X121920000Y-75565000D03*
X115420000Y-71065000D03*
X115420000Y-75565000D03*
D29*
X127805000Y-88585000D03*
X127805000Y-89535000D03*
X127805000Y-90485000D03*
X130005000Y-90485000D03*
X130005000Y-88585000D03*
D30*
X124710000Y-104550000D03*
X125360000Y-104550000D03*
X126010000Y-104550000D03*
X126660000Y-104550000D03*
X127310000Y-104550000D03*
X127960000Y-104550000D03*
X128610000Y-104550000D03*
X129260000Y-104550000D03*
X129910000Y-104550000D03*
X130560000Y-104550000D03*
X130560000Y-98650000D03*
X129910000Y-98650000D03*
X129260000Y-98650000D03*
X128610000Y-98650000D03*
X127960000Y-98650000D03*
X127310000Y-98650000D03*
X126660000Y-98650000D03*
X126010000Y-98650000D03*
X125360000Y-98650000D03*
X124710000Y-98650000D03*
D16*
X122440000Y-88265000D03*
X123940000Y-88265000D03*
M02*
